<?xml version="1.0" standalone="no"?>
<svg width="1300" height="500" version="1.1" xmlns="http://www.w3.org/2000/svg">

<polygon points="108	100	132	108	132	116	108	132	84	132	92	116	60	116	60	92	84	68	108	76	116	68	132	84	108	100" stroke="black" fill="transparent" stroke-width="3"/>
<polygon points="208	102	230	114	228	122	202	133	178	128	189	114	158	108	162	84	191	65	213	78	222	72	235	91	208	102" stroke="black" fill="transparent" stroke-width="3"/>
<polygon points="307	103	327	120	323	127	295	133	273	123	286	112	257	99	266	77	297	64	317	81	327	77	336	97	307	103" stroke="black" fill="transparent" stroke-width="3"/>
<polygon points="407	104	422	124	418	131	389	131	369	118	384	109	358	91	371	71	404	65	420	84	431	82	435	104	407	104" stroke="black" fill="transparent" stroke-width="3"/>
<polygon points="506	106	517	128	511	134	483	128	466	111	483	106	460	83	477	66	511	66	523	89	534	89	534	111	506	106" stroke="black" fill="transparent" stroke-width="3"/>
<polygon points="604	107	611	131	604	135	578	124	565	104	582	102	564	76	584	62	618	69	624	93	635	96	631	118	604	107" stroke="black" fill="transparent" stroke-width="3"/>
<polygon points="703	107	705	133	697	136	673	120	664	97	682	99	670	69	692	60	723	73	725	98	736	103	727	123	703	107" stroke="black" fill="transparent" stroke-width="3"/>
<polygon points="802	108	798	133	791	135	770	114	765	91	783	95	777	64	800	59	828	78	825	103	835	109	822	128	802	108" stroke="black" fill="transparent" stroke-width="3"/>


<polygon points="76	168	132	176	148	192	100	216	52	192	68	176	124	168	100	264	76	168" stroke="black" fill="transparent" stroke-width="3"/>
<polygon points="179 166	234	179	249	197	198	216	153	187	171	173	227	171	194	264	179	166" stroke="black" fill="transparent" stroke-width="3"/>
<polygon points="283 164	336	183	349	202	297	216	254	183	273	170	330	173	288	263	283	164" stroke="black" fill="transparent" stroke-width="3"/>
<polygon points="386 162	438	186	448	206	395	215	356	178	376	168	432	176	381	261	386	162" stroke="black" fill="transparent" stroke-width="3"/>
<polygon points="490 161	539	190	547	211	494	215	459	174	480	166	534	180	476	259	490	161" stroke="black" fill="transparent" stroke-width="3"/>
<polygon points="594 160	640	194	646	216	582	214	561	170	583	164	636	183	570	256	594	160" stroke="black" fill="transparent" stroke-width="3"/>
<polygon points="698 160	740	198	744	220	691	213	665	167	687	162	738	187	664	253	698	160" stroke="black" fill="transparent" stroke-width="3"/>
<polygon points="802 160	840	202	842	224	790	212	768	163	790	161	839	190	759	249	802	160" stroke="black" fill="transparent" stroke-width="3"/>
<polygon points="906 160	940	206	940	228	889	211	872	160	894	160	940	194	855	245	906	160" stroke="black" fill="transparent" stroke-width="3"/>

<polygon points="70	400	100	450	130	400	100	415	70	400" stroke="black" fill="transparent" stroke-width="3"/>
<polygon points="170	400	200	450	230	400	200	415	170	400	200	350	230	400	200	385" stroke="black" fill="transparent" stroke-width="3"/>
<polygon points="308	460	330	489	328	468	348	453	308	460	329	421	331	444	348	453	349	475	330	489	368	483	348	453" stroke="black" fill="transparent" stroke-width="3"/>


</svg>